<svg xmlns="http://www.w3.org/2000/svg" width="192" height="192" viewBox="0 0 192 192" fill="none">
  <defs>
    <linearGradient id="bg" x1="30" y1="24" x2="162" y2="168" gradientUnits="userSpaceOnUse">
      <stop stop-color="#163A59"/>
      <stop offset="1" stop-color="#0B2236"/>
    </linearGradient>
    <linearGradient id="wing" x1="56" y1="58" x2="142" y2="134" gradientUnits="userSpaceOnUse">
      <stop stop-color="#86D8FF"/>
      <stop offset="1" stop-color="#39A7F7"/>
    </linearGradient>
  </defs>
  <rect width="192" height="192" rx="44" fill="url(#bg)"/>
  <circle cx="96" cy="96" r="62" fill="#0F2E47" stroke="#FFFFFF" stroke-opacity="0.12" stroke-width="2"/>
  <path d="M58 118 91 75h18l-25 31h50l-11 14H58l40-50h-18L58 118Z" fill="url(#wing)"/>
  <path d="M110 70c8-8 18-12 31-12-9 6-15 12-19 19l13 4c-8 2-14 5-19 10 1-8-1-15-6-21Z" fill="#F7FCFF"/>
  <circle cx="130" cy="62" r="3" fill="#F7FCFF"/>
</svg>
