<svg xmlns="http://www.w3.org/2000/svg" width="512" height="512" viewBox="0 0 512 512" fill="none">
  <defs>
    <linearGradient id="bg" x1="80" y1="64" x2="432" y2="448" gradientUnits="userSpaceOnUse">
      <stop stop-color="#163A59"/>
      <stop offset="1" stop-color="#0B2236"/>
    </linearGradient>
    <linearGradient id="wing" x1="150" y1="154" x2="378" y2="360" gradientUnits="userSpaceOnUse">
      <stop stop-color="#86D8FF"/>
      <stop offset="1" stop-color="#39A7F7"/>
    </linearGradient>
  </defs>
  <rect width="512" height="512" rx="116" fill="url(#bg)"/>
  <circle cx="256" cy="256" r="166" fill="#0F2E47" stroke="#FFFFFF" stroke-opacity="0.12" stroke-width="6"/>
  <path d="M156 316 245 201h48l-68 83h134l-28 38H156l108-136h-49L156 316Z" fill="url(#wing)"/>
  <path d="M297 188c21-21 49-31 82-31-22 15-41 33-53 54l36 11c-21 6-38 16-51 31 2-23-4-44-14-65Z" fill="#F7FCFF"/>
  <circle cx="345" cy="168" r="8" fill="#F7FCFF"/>
</svg>
